<?xml version="1.0" encoding="utf-8"?>
<!-- Generator: Adobe Illustrator 26.5.0, SVG Export Plug-In . SVG Version: 6.00 Build 0)  -->
<!DOCTYPE svg PUBLIC "-//W3C//DTD SVG 1.0//EN" "http://www.w3.org/TR/2001/REC-SVG-20010904/DTD/svg10.dtd" [
	<!ENTITY ns_extend "http://ns.adobe.com/Extensibility/1.0/">
	<!ENTITY ns_ai "http://ns.adobe.com/AdobeIllustrator/10.0/">
	<!ENTITY ns_graphs "http://ns.adobe.com/Graphs/1.0/">
	<!ENTITY ns_vars "http://ns.adobe.com/Variables/1.0/">
	<!ENTITY ns_imrep "http://ns.adobe.com/ImageReplacement/1.0/">
	<!ENTITY ns_sfw "http://ns.adobe.com/SaveForWeb/1.0/">
	<!ENTITY ns_custom "http://ns.adobe.com/GenericCustomNamespace/1.0/">
	<!ENTITY ns_adobe_xpath "http://ns.adobe.com/XPath/1.0/">
]>
<svg version="1.0" id="Слой_1" xmlns:x="&ns_extend;" xmlns:i="&ns_ai;" xmlns:graph="&ns_graphs;"
	 xmlns="http://www.w3.org/2000/svg" xmlns:xlink="http://www.w3.org/1999/xlink" x="0px" y="0px" viewBox="0 0 1366 768"
	 style="enable-background:new 0 0 1366 768;" xml:space="preserve">
<style type="text/css">
	.st0{fill:#3C3C3A;}
	.st1{font-family:'Selawik-Semilight';}
	.st2{font-size:174.299px;}
	.st3{font-family:'SedgwickCo';}
	.st4{font-size:193.1788px;}
	.st5{fill:#FFFFFF;stroke:#FFFF00;stroke-width:0.4811;stroke-miterlimit:10;}
</style>
<metadata>
	<sfw  xmlns="&ns_sfw;">
		<slices></slices>
		<sliceSourceBounds  bottomLeftOrigin="true" height="768" width="1366" x="0" y="-768"></sliceSourceBounds>
	</sfw>
</metadata>
<g>
	<ellipse cx="412.9" cy="384" rx="412.8" ry="383.9"/>
	<text transform="matrix(1.0753 0 0 1 840.0684 496.2891)" class="st0 st1 st2">Оптом</text>
	<text transform="matrix(1.0753 0 0 1 590.7764 326.8906)" class="st0 st3 st4">Взуття</text>
	<g>
		<path class="st5" d="M339.7,439.9c-141-110-234.9-169-254.8-181.2c-3.8,5.5-7.4,11-10.8,16.2c-11.1,17.5-14.5,34.3-10,50
			c7.6,26.2,34.7,40.5,34.9,40.6l359.9,198c96.3,53,159.3,71.7,192.4,57.2c10.6-4.6,17.4-12.4,22.2-22
			c-23.7-5.3-118.3-28.7-224.7-87.3C413,491.7,375.9,468.1,339.7,439.9z"/>
		<path class="st5" d="M493.8,306.3c10.9,27.9,36.9,59.2,66.4,90.2C547.9,380.1,529.3,354.6,493.8,306.3z"/>
		<path class="st5" d="M214,117c23.9,14.8,126.9,74.4,251.5,91.2c-7.9-24.5-21.5-35.2-54.7-45.2c-45-13.5-112.6-42.6-148.8-58.8
			c-10.1-4.5-21.9-4-30.9,1.3C225.6,108.8,219.9,112.7,214,117z"/>
		<path class="st5" d="M458.4,177.5c0.1-24.1-3.7-62.7-21.8-73.3c-20.1-11.6-102.1-3.6-146.8,2.3c34.9,15.1,87.6,37,123.9,47.9
			C434.8,160.8,448.7,167.8,458.4,177.5z"/>
		<path class="st5" d="M449.5,377.1c-2.1-2.2-4.2-4.2-6.3-6.4c-29.2-30.5-48.3-57-60.7-79.6l-137.9,65.5
			c29.5,21.5,62.6,46.3,98.8,74.6L449.5,377.1z"/>
		<path class="st5" d="M618.4,468c-8.9,1.9-35.7,4.5-79-19.3c-10.9-6-22.9-13.8-35.8-23.5c-3.9,9.1-8.3,31.6,24.7,59.9
			c39,33.5,131.4,62.8,155.9,70.2C682.3,534.5,653.2,502.8,618.4,468z"/>
		<path class="st5" d="M416.2,208.4c-13.9-3.1-27.4-6.6-40.4-10.5c-5.5,12.9-20,68,74.5,166.7c86.8,90.6,141.1,96.8,160.2,95.4
			c-4.1-4.1-8.3-8.2-12.5-12.4c-4.6-4.5-9.3-9.1-13.9-13.8c-1-0.5-1.9-1-2.9-1.6C431.5,350,417.5,230.3,416.2,208.4z"/>
		<path class="st5" d="M236.2,350.5L378.3,283c-23.7-47.8-16.4-76.9-11.7-87.8C308.2,177.1,260.5,153.6,232,138
			c-12.6-6.9-21.3-12.3-25.7-15c-39.7,31.5-84.1,82.6-116.2,128.2C104.3,259.9,156.3,292.5,236.2,350.5z"/>
		<path class="st5" d="M677,590.3c2.8-8,4.8-16.7,6.4-25.8c-16.7-4.9-81.4-24.9-128.7-50.9c-12.6-6.9-24-14.3-32.9-21.9
			c-39.4-33.9-30.7-62.4-25.8-72.3c-12.4-9.8-25.7-21.6-39.8-35.5l-104.8,53.4C494.7,546.9,650.3,584.5,677,590.3z"/>
		<path class="st5" d="M479.5,290l-2.5-18.2c-3.1-22.9-5.5-40.5-8.9-54.3c-14.4-1.8-28.5-4.2-42.2-7.1
			c1.9,23.9,16.9,121.6,132.5,197.6C519.4,367.6,484.7,325.8,479.5,290z"/>
	</g>
</g>
</svg>
